<svg width="239" height="160" viewBox="0 0 239 160" fill="none" xmlns="http://www.w3.org/2000/svg">
<g clip-path="url(#clip0_74_73)">
<path d="M0 69.3837C0 48.8131 16.6378 -3.8147e-06 37.1615 -3.8147e-06C57.6852 -3.8147e-06 74.323 48.8131 74.323 69.3837C74.323 79.2621 70.4078 88.7359 63.4386 95.7209C56.4695 102.706 47.0173 106.63 37.1615 106.63C27.3057 106.63 17.8535 102.706 10.8844 95.7209C3.91522 88.7359 1.46863e-07 79.2621 0 69.3837Z" fill="#3CCD63"/>
<path d="M37.1615 160C37.0804 160 37.0027 159.968 36.9454 159.91C36.8881 159.853 36.8559 159.775 36.8559 159.694V31.2803C36.8559 31.1991 36.8881 31.1212 36.9454 31.0638C37.0027 31.0063 37.0804 30.9741 37.1615 30.9741C37.2425 30.9741 37.3202 31.0063 37.3775 31.0638C37.4349 31.1212 37.4671 31.1991 37.4671 31.2803V159.694C37.4671 159.775 37.4349 159.853 37.3775 159.91C37.3202 159.968 37.2425 160 37.1615 160Z" fill="#3F3D56"/>
<path d="M37.1615 56.0715C37.1213 56.0715 37.0816 56.0636 37.0445 56.0482C37.0074 56.0328 36.9737 56.0102 36.9454 55.9817L22.2369 41.2397C22.2083 41.2113 22.1855 41.1776 22.1699 41.1403C22.1543 41.1031 22.1462 41.0631 22.1461 41.0228C22.146 40.9824 22.1538 40.9424 22.1692 40.905C22.1845 40.8677 22.2071 40.8338 22.2356 40.8052C22.2641 40.7767 22.2979 40.754 22.3352 40.7387C22.3724 40.7233 22.4124 40.7154 22.4526 40.7155C22.4929 40.7157 22.5328 40.7238 22.57 40.7394C22.6071 40.7551 22.6408 40.7779 22.6691 40.8066L37.3776 55.5486C37.4203 55.5915 37.4494 55.646 37.4612 55.7054C37.473 55.7649 37.4669 55.8264 37.4438 55.8824C37.4206 55.9383 37.3815 55.9862 37.3312 56.0198C37.281 56.0535 37.2219 56.0715 37.1615 56.0715Z" fill="#3F3D56"/>
<path d="M37.1615 81.5928C37.1011 81.5928 37.042 81.5748 36.9917 81.5412C36.9415 81.5075 36.9023 81.4597 36.8792 81.4038C36.8561 81.3478 36.85 81.2862 36.8618 81.2268C36.8736 81.1674 36.9027 81.1129 36.9454 81.07L61.5774 56.3816C61.6057 56.3529 61.6394 56.33 61.6765 56.3144C61.7137 56.2988 61.7536 56.2907 61.7938 56.2905C61.8341 56.2904 61.8741 56.2983 61.9113 56.3136C61.9486 56.329 61.9824 56.3517 62.0109 56.3802C62.0394 56.4088 62.062 56.4427 62.0773 56.48C62.0927 56.5173 62.1005 56.5574 62.1004 56.5977C62.1003 56.6381 62.0922 56.6781 62.0766 56.7153C62.061 56.7526 62.0382 56.7863 62.0096 56.8147L37.3776 81.5031C37.3492 81.5316 37.3155 81.5542 37.2785 81.5696C37.2414 81.585 37.2016 81.5929 37.1615 81.5928Z" fill="#3F3D56"/>
<path d="M70.8092 94.4197C70.8092 79.6381 82.7729 44.562 97.5308 44.562C112.289 44.562 124.252 79.6381 124.252 94.4197C124.248 101.52 121.43 108.327 116.419 113.346C111.409 118.365 104.615 121.184 97.5308 121.184C90.4469 121.184 83.6529 118.365 78.6422 113.346C73.6314 108.327 70.814 101.52 70.8092 94.4197Z" fill="#E6E6E6"/>
<path d="M97.5308 159.535C97.5019 159.535 97.4734 159.529 97.4467 159.518C97.4201 159.507 97.3958 159.491 97.3754 159.47C97.355 159.45 97.3388 159.426 97.3278 159.399C97.3167 159.372 97.3111 159.344 97.311 159.315V67.0394C97.3113 66.9812 97.3345 66.9253 97.3757 66.8842C97.4169 66.8431 97.4726 66.82 97.5308 66.82C97.5889 66.82 97.6447 66.8431 97.6858 66.8842C97.727 66.9253 97.7503 66.9812 97.7505 67.0394V159.315C97.7505 159.344 97.7448 159.372 97.7337 159.399C97.7227 159.426 97.7065 159.45 97.6861 159.47C97.6657 159.491 97.6415 159.507 97.6148 159.518C97.5882 159.529 97.5596 159.535 97.5308 159.535Z" fill="#3F3D56"/>
<path d="M97.5308 84.8538C97.5019 84.8538 97.4733 84.8482 97.4467 84.8371C97.42 84.826 97.3958 84.8098 97.3754 84.7893L86.799 74.196C86.7579 74.1547 86.7348 74.0987 86.7348 74.0403C86.7348 73.982 86.758 73.926 86.7992 73.8847C86.8404 73.8434 86.8963 73.8203 86.9545 73.8203C87.0128 73.8203 87.0686 73.8435 87.1098 73.8848L97.6862 84.4781C97.7169 84.5089 97.7378 84.5481 97.7462 84.5908C97.7547 84.6335 97.7503 84.6778 97.7337 84.718C97.7171 84.7582 97.6889 84.7926 97.6528 84.8168C97.6167 84.8409 97.5742 84.8538 97.5308 84.8538Z" fill="#3F3D56"/>
<path d="M97.5308 103.193C97.4873 103.193 97.4449 103.18 97.4087 103.156C97.3726 103.132 97.3445 103.097 97.3278 103.057C97.3112 103.017 97.3068 102.973 97.3153 102.93C97.3238 102.887 97.3447 102.848 97.3754 102.817L115.087 85.0767C115.108 85.0562 115.132 85.04 115.159 85.0289C115.185 85.0178 115.214 85.0121 115.243 85.0121C115.272 85.0121 115.3 85.0178 115.327 85.0288C115.353 85.0399 115.378 85.0561 115.398 85.0765C115.418 85.097 115.435 85.1212 115.446 85.1479C115.457 85.1746 115.462 85.2033 115.462 85.2322C115.462 85.2611 115.457 85.2897 115.446 85.3164C115.435 85.3431 115.419 85.3674 115.398 85.3879L97.6861 103.128C97.6657 103.149 97.6415 103.165 97.6149 103.176C97.5882 103.187 97.5596 103.193 97.5308 103.193Z" fill="#3F3D56"/>
<path d="M99.1257 157.77C98.7449 157.769 98.3709 157.668 98.0415 157.477C97.7122 157.285 97.4392 157.009 97.2501 156.678C97.0609 156.347 96.9624 155.971 96.9644 155.59C96.9664 155.208 97.0689 154.833 97.2615 154.504L100.291 149.32L104.027 151.513L100.997 156.697C100.806 157.024 100.532 157.295 100.204 157.484C99.8757 157.672 99.5039 157.77 99.1257 157.77Z" fill="#3CCD63"/>
<path d="M111.015 145.921C112.486 145.921 113.679 144.725 113.679 143.251C113.679 141.776 112.486 140.58 111.015 140.58C109.543 140.58 108.35 141.776 108.35 143.251C108.35 144.725 109.543 145.921 111.015 145.921Z" fill="#3CCD63"/>
<path d="M87.4037 157.77C87.0228 157.769 86.6488 157.668 86.3194 157.477C85.9901 157.285 85.717 157.009 85.5279 156.678C85.3388 156.347 85.2402 155.971 85.2423 155.589C85.2443 155.208 85.3468 154.833 85.5395 154.504L88.5691 149.32L92.3048 151.513L89.2752 156.697C89.0838 157.024 88.8103 157.295 88.482 157.484C88.1536 157.672 87.7819 157.77 87.4037 157.77Z" fill="#3CCD63"/>
<path d="M104.847 154.305H91.4227C89.5958 154.303 87.8443 153.574 86.5525 152.28C85.2607 150.985 84.534 149.229 84.532 147.398V145.354C84.5327 144.718 84.785 144.109 85.2336 143.659C85.6822 143.209 86.2905 142.956 86.9249 142.956H104.847C106.348 142.956 107.788 143.554 108.85 144.618C109.912 145.682 110.508 147.125 110.508 148.63C110.508 150.135 109.912 151.579 108.85 152.643C107.788 153.707 106.348 154.305 104.847 154.305Z" fill="#3F3D56"/>
<path d="M104.211 159.536C103.637 159.535 103.087 159.306 102.681 158.899C102.275 158.493 102.047 157.941 102.046 157.366V151.358H106.375V157.366C106.375 157.941 106.147 158.493 105.741 158.899C105.335 159.306 104.785 159.535 104.211 159.536Z" fill="#3F3D56"/>
<path d="M91.648 159.536C91.0741 159.535 90.5239 159.306 90.118 158.899C89.7122 158.493 89.484 157.941 89.4833 157.366V151.358H93.8127V157.366C93.8121 157.941 93.5838 158.493 93.178 158.899C92.7722 159.306 92.2219 159.535 91.648 159.536Z" fill="#3F3D56"/>
<path d="M80.5775 139.06L76.423 142.404L72.0436 136.939C71.6034 136.386 71.3996 135.682 71.4771 134.979C71.5546 134.276 71.907 133.633 72.4569 133.19C73.0069 132.747 73.7096 132.541 74.4109 132.617C75.1123 132.693 75.755 133.044 76.1981 133.595L80.5775 139.06Z" fill="#3CCD63"/>
<path d="M86.4525 147.068L79.5813 152.599C79.1838 152.918 78.6763 153.066 78.1699 153.011C77.6636 152.955 77.1999 152.701 76.8805 152.303L73.9899 148.696C72.9756 147.427 72.5049 145.807 72.6809 144.191C72.857 142.575 73.6654 141.095 74.9289 140.075L76.0251 139.193C77.0867 138.34 78.4425 137.945 79.7948 138.093C81.1472 138.241 82.3858 138.92 83.2389 139.982L86.7473 144.361C87.0658 144.759 87.2137 145.268 87.1584 145.775C87.1031 146.283 86.8492 146.748 86.4525 147.068Z" fill="#3F3D56"/>
<path d="M80.5775 139.06L77.7213 141.359L72.8205 135.243C72.5163 134.864 72.3751 134.378 72.4278 133.894C72.4805 133.41 72.7229 132.967 73.1017 132.662C73.4804 132.357 73.9645 132.216 74.4474 132.269C74.9304 132.321 75.3726 132.564 75.6768 132.944L80.5775 139.06Z" fill="#3F3D56"/>
<path d="M86.034 147.331L78.504 153.392C77.9529 153.834 77.2496 154.038 76.5484 153.96C75.8472 153.883 75.2053 153.53 74.7636 152.978C74.3218 152.427 74.1162 151.723 74.1919 151.02C74.2676 150.317 74.6184 149.672 75.1674 149.228L82.6974 143.167L86.034 147.331Z" fill="#3F3D56"/>
<path d="M75.6268 153.667C75.8957 153.45 75.7985 152.881 75.4098 152.396C75.0211 151.911 74.488 151.694 74.2191 151.91C73.9502 152.126 74.0474 152.695 74.4361 153.18C74.8248 153.665 75.3579 153.883 75.6268 153.667Z" fill="#3CCD63"/>
<path d="M54.2593 155.994C54.2593 156.847 53.9212 157.665 53.3195 158.268C52.7178 158.871 51.9017 159.21 51.0508 159.21C49.2788 159.21 49.2174 157.602 50.5924 155.994C49.2174 155.075 49.2788 152.778 51.0508 152.778C51.9017 152.778 52.7178 153.117 53.3195 153.72C53.9212 154.323 54.2593 155.141 54.2593 155.994Z" fill="#CCCCCC"/>
<path d="M63.4264 155.994C63.4264 156.847 63.7644 157.665 64.3661 158.268C64.9678 158.871 65.7839 159.21 66.6349 159.21C68.4069 159.21 68.4683 157.602 67.0932 155.994C68.4683 155.075 68.4069 152.778 66.6349 152.778C65.7839 152.778 64.9678 153.117 64.3661 153.72C63.7644 154.323 63.4264 155.141 63.4264 155.994Z" fill="#CCCCCC"/>
<path d="M65.2598 154.386H52.4259V157.602H65.2598V154.386Z" fill="#CCCCCC"/>
<path d="M238.694 159.823H10.7393C10.6583 159.823 10.5806 159.79 10.5232 159.733C10.4659 159.675 10.4337 159.598 10.4337 159.516C10.4337 159.435 10.4659 159.357 10.5232 159.3C10.5806 159.242 10.6583 159.21 10.7393 159.21H238.694C238.775 159.21 238.853 159.242 238.911 159.3C238.968 159.357 239 159.435 239 159.516C239 159.598 238.968 159.675 238.911 159.733C238.853 159.79 238.775 159.823 238.694 159.823Z" fill="#3F3D56"/>
<path d="M184.708 99.0715C187.206 99.0715 189.231 97.0422 189.231 94.5388C189.231 92.0354 187.206 90.0061 184.708 90.0061C182.211 90.0061 180.186 92.0354 180.186 94.5388C180.186 97.0422 182.211 99.0715 184.708 99.0715Z" fill="#A0616A"/>
<path d="M184.416 119.95C184.329 119.677 184.3 119.39 184.331 119.105C184.363 118.821 184.454 118.547 184.599 118.3C184.743 118.053 184.938 117.84 185.171 117.674C185.403 117.509 185.668 117.394 185.948 117.338C186.037 117.321 186.127 117.31 186.217 117.305L190.981 109.642L186.629 105.496C186.463 105.337 186.33 105.147 186.237 104.937C186.144 104.727 186.094 104.5 186.09 104.27C186.085 104.04 186.125 103.812 186.209 103.598C186.293 103.384 186.419 103.188 186.578 103.023C186.738 102.858 186.928 102.726 187.139 102.635C187.35 102.544 187.576 102.496 187.806 102.493C188.035 102.491 188.263 102.534 188.475 102.62C188.688 102.706 188.882 102.833 189.045 102.994L195.053 108.932L195.065 108.947C195.251 109.23 195.341 109.566 195.321 109.905C195.301 110.243 195.173 110.567 194.956 110.826L188.281 118.739C188.301 118.802 188.318 118.866 188.331 118.932C188.387 119.212 188.383 119.501 188.319 119.78C188.256 120.059 188.134 120.322 187.963 120.55C187.791 120.779 187.573 120.968 187.323 121.106C187.073 121.245 186.797 121.328 186.513 121.352C186.455 121.357 186.398 121.36 186.341 121.36C185.913 121.358 185.496 121.221 185.15 120.968C184.805 120.714 184.548 120.358 184.416 119.95Z" fill="#A0616A"/>
<path d="M177.26 157.623H175.002L173.929 148.896L177.26 148.896L177.26 157.623Z" fill="#A0616A"/>
<path d="M177.927 159.909L170.465 159.908V159.724C170.465 159.339 170.54 158.958 170.687 158.602C170.834 158.246 171.05 157.923 171.321 157.651C171.593 157.379 171.915 157.163 172.27 157.015C172.625 156.868 173.006 156.792 173.39 156.792L177.928 156.792L177.927 159.909Z" fill="#2F2E41"/>
<path d="M199.697 154.495L197.757 155.653L192.38 148.705L195.243 146.996L199.697 154.495Z" fill="#A0616A"/>
<path d="M195.025 159.943L194.931 159.784C194.534 159.116 194.418 158.317 194.609 157.564C194.799 156.81 195.281 156.163 195.948 155.765L199.847 153.438L201.437 156.116L195.025 159.943Z" fill="#2F2E41"/>
<path d="M173.644 153.78C172.132 135.933 171.232 119.353 176.76 112.59L176.803 112.537L186.106 116.267L186.121 116.3C186.153 116.369 189.247 123.19 188.525 127.778L190.82 138.358L198.302 150.915C198.362 151.016 198.4 151.129 198.414 151.246C198.427 151.363 198.416 151.481 198.38 151.594C198.344 151.706 198.285 151.809 198.207 151.897C198.128 151.984 198.032 152.054 197.924 152.101L194.673 153.535C194.489 153.615 194.283 153.626 194.092 153.567C193.901 153.507 193.738 153.38 193.633 153.209L185.493 139.907L180.896 129.704C180.871 129.649 180.829 129.603 180.775 129.574C180.722 129.545 180.661 129.535 180.601 129.545C180.541 129.554 180.486 129.583 180.444 129.628C180.402 129.672 180.376 129.728 180.37 129.789L177.821 153.798C177.8 154.002 177.704 154.191 177.552 154.328C177.4 154.465 177.202 154.541 176.997 154.541H174.47C174.262 154.54 174.063 154.461 173.91 154.32C173.757 154.18 173.662 153.987 173.644 153.78Z" fill="#2F2E41"/>
<path d="M176.791 112.731L176.747 112.71L176.74 112.661C176.393 110.223 176.804 107.514 177.963 104.61C178.534 103.188 179.595 102.02 180.954 101.317C182.313 100.615 183.878 100.425 185.365 100.782C186.221 100.993 187.025 101.381 187.724 101.92C188.423 102.459 189.003 103.137 189.427 103.912C189.845 104.68 190.1 105.526 190.176 106.397C190.251 107.268 190.145 108.146 189.864 108.974C188.403 113.255 186.508 117.261 186.489 117.301L186.449 117.385L176.791 112.731Z" fill="#3CCD63"/>
<path d="M170.097 122.842C170.033 122.349 170.148 121.85 170.42 121.435C170.692 121.02 171.104 120.717 171.58 120.581L180.28 103.841C180.394 103.653 180.544 103.489 180.722 103.36C180.899 103.23 181.101 103.137 181.314 103.086C181.528 103.034 181.75 103.026 181.967 103.061C182.184 103.096 182.391 103.173 182.578 103.289C182.765 103.404 182.928 103.556 183.056 103.735C183.184 103.913 183.276 104.116 183.326 104.33C183.376 104.545 183.383 104.767 183.347 104.984C183.311 105.201 183.233 105.409 183.116 105.596L174.211 122.219C174.23 122.32 174.241 122.423 174.244 122.526C174.252 122.807 174.203 123.086 174.1 123.348C173.997 123.61 173.842 123.848 173.645 124.048C173.448 124.248 173.212 124.406 172.953 124.513C172.693 124.619 172.415 124.672 172.134 124.668C171.827 124.664 171.524 124.591 171.248 124.456C170.971 124.32 170.729 124.125 170.537 123.884C170.296 123.584 170.144 123.223 170.097 122.842Z" fill="#A0616A"/>
<path d="M179.225 91.9783H186.406V88.841C184.83 88.2134 183.287 87.6796 182.355 88.841C181.525 88.841 180.729 89.1715 180.142 89.7599C179.555 90.3483 179.225 91.1463 179.225 91.9783Z" fill="#2F2E41"/>
<path d="M186.803 88.2873C191.096 88.2873 192.298 93.6807 192.298 96.7234C192.298 98.4202 191.532 99.0271 190.329 99.2325L189.904 96.9612L188.909 99.3302C188.571 99.3319 188.216 99.3254 187.848 99.3185L187.511 98.6221L186.758 99.306C183.745 99.3105 181.309 99.7508 181.309 96.7234C181.309 93.6807 182.363 88.2873 186.803 88.2873Z" fill="#2F2E41"/>
</g>
<defs>
<clipPath id="clip0_74_73">
<rect width="239" height="160" fill="white"/>
</clipPath>
</defs>
</svg>
