<svg width="138" height="24" viewBox="0 0 138 24" fill="none" xmlns="http://www.w3.org/2000/svg">
<path d="M41.6738 23.3164C40.2871 23.3164 39.1966 23.0462 38.4023 22.5059C37.6081 21.972 37.097 21.3242 36.8691 20.5625L39.1738 19.9961C39.278 20.2109 39.431 20.4225 39.6328 20.6309C39.8346 20.8457 40.1048 21.0215 40.4434 21.1582C40.7819 21.3014 41.2083 21.373 41.7227 21.373C42.4518 21.373 43.054 21.194 43.5293 20.8359C44.0111 20.4844 44.252 19.9082 44.252 19.1074V17.0469H44.1055C43.9818 17.3073 43.793 17.5775 43.5391 17.8574C43.2852 18.1309 42.9499 18.3652 42.5332 18.5605C42.123 18.7493 41.6022 18.8438 40.9707 18.8438C40.1374 18.8438 39.3789 18.6452 38.6953 18.248C38.0182 17.8509 37.4779 17.2585 37.0742 16.4707C36.6771 15.6829 36.4785 14.6966 36.4785 13.5117C36.4785 12.3138 36.6771 11.3014 37.0742 10.4746C37.4779 9.64779 38.0215 9.01953 38.7051 8.58984C39.3887 8.16016 40.1504 7.94531 40.9902 7.94531C41.6283 7.94531 42.1556 8.05273 42.5723 8.26758C42.9889 8.48242 43.321 8.74284 43.5684 9.04883C43.8158 9.34831 44.0078 9.62826 44.1445 9.88867H44.2812V8.08203H46.791V19.1758C46.791 20.1068 46.5697 20.8783 46.127 21.4902C45.6842 22.1022 45.0755 22.5579 44.3008 22.8574C43.5326 23.1634 42.6569 23.3164 41.6738 23.3164ZM41.6934 16.8223C42.5137 16.8223 43.1452 16.5293 43.5879 15.9434C44.0371 15.3509 44.2617 14.5339 44.2617 13.4922C44.2617 12.8021 44.1641 12.1999 43.9688 11.6855C43.7734 11.1712 43.4837 10.7708 43.0996 10.4844C42.7155 10.1979 42.2467 10.0547 41.6934 10.0547C41.1204 10.0547 40.6419 10.2044 40.2578 10.5039C39.8737 10.8034 39.584 11.2135 39.3887 11.7344C39.1999 12.2487 39.1055 12.8346 39.1055 13.4922C39.1055 14.1562 39.2031 14.7389 39.3984 15.2402C39.5938 15.7415 39.8835 16.1322 40.2676 16.4121C40.6582 16.6855 41.1335 16.8223 41.6934 16.8223ZM48.6855 19V8.08203H51.1758V9.91797H51.293C51.4883 9.27995 51.8301 8.79167 52.3184 8.45312C52.8066 8.10807 53.3633 7.93555 53.9883 7.93555C54.125 7.93555 54.2812 7.94206 54.457 7.95508C54.6393 7.9681 54.7891 7.98438 54.9062 8.00391V10.3672C54.7956 10.3281 54.623 10.2956 54.3887 10.2695C54.1543 10.2435 53.9297 10.2305 53.7148 10.2305C53.2396 10.2305 52.8164 10.3314 52.4453 10.5332C52.0742 10.735 51.7812 11.0117 51.5664 11.3633C51.3581 11.7148 51.2539 12.125 51.2539 12.5938V19H48.6855ZM60.2578 19.2148C59.1641 19.2148 58.2201 18.987 57.4258 18.5312C56.6315 18.069 56.0195 17.418 55.5898 16.5781C55.1667 15.7383 54.9551 14.7487 54.9551 13.6094C54.9551 12.4831 55.1667 11.4967 55.5898 10.6504C56.013 9.79753 56.6087 9.13346 57.377 8.6582C58.1452 8.18294 59.0501 7.94531 60.0918 7.94531C60.7624 7.94531 61.3971 8.05273 61.9961 8.26758C62.6016 8.48242 63.1354 8.81445 63.5977 9.26367C64.0664 9.71289 64.4342 10.2858 64.7012 10.9824C64.9681 11.6725 65.1016 12.4961 65.1016 13.4531V14.2539H56.1562V12.5254H63.8223L62.6211 13.0332C62.6211 12.4147 62.5267 11.8776 62.3379 11.4219C62.1491 10.9596 61.8691 10.5983 61.498 10.3379C61.127 10.0775 60.6647 9.94727 60.1113 9.94727C59.5579 9.94727 59.0859 10.0775 58.6953 10.3379C58.3047 10.5983 58.0085 10.9499 57.8066 11.3926C57.6048 11.8288 57.5039 12.3171 57.5039 12.8574V14.0586C57.5039 14.7227 57.6178 15.2923 57.8457 15.7676C58.0801 16.2363 58.4056 16.5944 58.8223 16.8418C59.2454 17.0892 59.737 17.2129 60.2969 17.2129C60.6615 17.2129 60.9935 17.1608 61.293 17.0566C61.599 16.9525 61.8594 16.7962 62.0742 16.5879C62.2956 16.373 62.4648 16.1094 62.582 15.7969L64.9844 16.0801C64.8281 16.7116 64.5384 17.265 64.1152 17.7402C63.6986 18.209 63.1615 18.5736 62.5039 18.834C61.8529 19.0879 61.1042 19.2148 60.2578 19.2148ZM71.332 19.2148C70.2383 19.2148 69.2943 18.987 68.5 18.5312C67.7057 18.069 67.0938 17.418 66.6641 16.5781C66.2409 15.7383 66.0293 14.7487 66.0293 13.6094C66.0293 12.4831 66.2409 11.4967 66.6641 10.6504C67.0872 9.79753 67.6829 9.13346 68.4512 8.6582C69.2194 8.18294 70.1243 7.94531 71.166 7.94531C71.8366 7.94531 72.4714 8.05273 73.0703 8.26758C73.6758 8.48242 74.2096 8.81445 74.6719 9.26367C75.1406 9.71289 75.5085 10.2858 75.7754 10.9824C76.0423 11.6725 76.1758 12.4961 76.1758 13.4531V14.2539H67.2305V12.5254H74.8965L73.6953 13.0332C73.6953 12.4147 73.6009 11.8776 73.4121 11.4219C73.2233 10.9596 72.9434 10.5983 72.5723 10.3379C72.2012 10.0775 71.7389 9.94727 71.1855 9.94727C70.6322 9.94727 70.1602 10.0775 69.7695 10.3379C69.3789 10.5983 69.0827 10.9499 68.8809 11.3926C68.679 11.8288 68.5781 12.3171 68.5781 12.8574V14.0586C68.5781 14.7227 68.6921 15.2923 68.9199 15.7676C69.1543 16.2363 69.4798 16.5944 69.8965 16.8418C70.3197 17.0892 70.8112 17.2129 71.3711 17.2129C71.7357 17.2129 72.0677 17.1608 72.3672 17.0566C72.6732 16.9525 72.9336 16.7962 73.1484 16.5879C73.3698 16.373 73.5391 16.1094 73.6562 15.7969L76.0586 16.0801C75.9023 16.7116 75.6126 17.265 75.1895 17.7402C74.7728 18.209 74.2357 18.5736 73.5781 18.834C72.9271 19.0879 72.1784 19.2148 71.332 19.2148ZM80.1406 12.6133V19H77.5723V8.08203H80.0918V9.94727H80.2188C80.4661 9.33529 80.8535 8.85026 81.3809 8.49219C81.9147 8.1276 82.5918 7.94531 83.4121 7.94531C84.1673 7.94531 84.8249 8.10482 85.3848 8.42383C85.9447 8.74284 86.3776 9.21159 86.6836 9.83008C86.9961 10.4421 87.1523 11.1842 87.1523 12.0566V19H84.584V12.457C84.584 11.7279 84.3952 11.1582 84.0176 10.748C83.64 10.3314 83.1191 10.123 82.4551 10.123C82.0059 10.123 81.6055 10.2207 81.2539 10.416C80.9089 10.6113 80.6354 10.8945 80.4336 11.2656C80.2383 11.6302 80.1406 12.0794 80.1406 12.6133ZM91.625 4.44922V19H89.0566V4.44922H91.625ZM100.482 14.4199V8.08203H103.051V19H100.561V17.0566H100.443C100.196 17.6686 99.7923 18.1699 99.2324 18.5605C98.6725 18.9512 97.9824 19.1432 97.1621 19.1367C96.446 19.1367 95.8145 18.9805 95.2676 18.668C94.7272 18.349 94.3008 17.8835 93.9883 17.2715C93.6823 16.653 93.5293 15.9076 93.5293 15.0352V8.08203H96.0977V14.6445C96.0977 15.3281 96.2865 15.875 96.6641 16.2852C97.0482 16.6953 97.5495 16.8971 98.168 16.8906C98.5456 16.8906 98.9102 16.7995 99.2617 16.6172C99.6198 16.4349 99.9128 16.1615 100.141 15.7969C100.368 15.4323 100.482 14.9733 100.482 14.4199ZM107.523 12.6133V19H104.955V8.08203H107.475V9.94727H107.602C107.849 9.33529 108.236 8.85026 108.764 8.49219C109.298 8.1276 109.975 7.94531 110.795 7.94531C111.55 7.94531 112.208 8.10482 112.768 8.42383C113.327 8.74284 113.76 9.21159 114.066 9.83008C114.379 10.4421 114.535 11.1842 114.535 12.0566V19H111.967V12.457C111.967 11.7279 111.778 11.1582 111.4 10.748C111.023 10.3314 110.502 10.123 109.838 10.123C109.389 10.123 108.988 10.2207 108.637 10.416C108.292 10.6113 108.018 10.8945 107.816 11.2656C107.621 11.6302 107.523 12.0794 107.523 12.6133ZM121.166 23.3164C119.779 23.3164 118.689 23.0462 117.895 22.5059C117.1 21.972 116.589 21.3242 116.361 20.5625L118.666 19.9961C118.77 20.2109 118.923 20.4225 119.125 20.6309C119.327 20.8457 119.597 21.0215 119.936 21.1582C120.274 21.3014 120.701 21.373 121.215 21.373C121.944 21.373 122.546 21.194 123.021 20.8359C123.503 20.4844 123.744 19.9082 123.744 19.1074V17.0469H123.598C123.474 17.3073 123.285 17.5775 123.031 17.8574C122.777 18.1309 122.442 18.3652 122.025 18.5605C121.615 18.7493 121.094 18.8438 120.463 18.8438C119.63 18.8438 118.871 18.6452 118.188 18.248C117.51 17.8509 116.97 17.2585 116.566 16.4707C116.169 15.6829 115.971 14.6966 115.971 13.5117C115.971 12.3138 116.169 11.3014 116.566 10.4746C116.97 9.64779 117.514 9.01953 118.197 8.58984C118.881 8.16016 119.643 7.94531 120.482 7.94531C121.12 7.94531 121.648 8.05273 122.064 8.26758C122.481 8.48242 122.813 8.74284 123.061 9.04883C123.308 9.34831 123.5 9.62826 123.637 9.88867H123.773V8.08203H126.283V19.1758C126.283 20.1068 126.062 20.8783 125.619 21.4902C125.176 22.1022 124.568 22.5579 123.793 22.8574C123.025 23.1634 122.149 23.3164 121.166 23.3164ZM121.186 16.8223C122.006 16.8223 122.637 16.5293 123.08 15.9434C123.529 15.3509 123.754 14.5339 123.754 13.4922C123.754 12.8021 123.656 12.1999 123.461 11.6855C123.266 11.1712 122.976 10.7708 122.592 10.4844C122.208 10.1979 121.739 10.0547 121.186 10.0547C120.613 10.0547 120.134 10.2044 119.75 10.5039C119.366 10.8034 119.076 11.2135 118.881 11.7344C118.692 12.2487 118.598 12.8346 118.598 13.4922C118.598 14.1562 118.695 14.7389 118.891 15.2402C119.086 15.7415 119.376 16.1322 119.76 16.4121C120.15 16.6855 120.626 16.8223 121.186 16.8223ZM136.791 10.9824L134.457 11.2266C134.359 10.8685 134.148 10.5527 133.822 10.2793C133.497 9.99935 133.038 9.85938 132.445 9.85938C131.911 9.85938 131.462 9.97656 131.098 10.2109C130.74 10.4453 130.561 10.7448 130.561 11.1094C130.561 11.4284 130.678 11.6921 130.912 11.9004C131.153 12.1022 131.55 12.265 132.104 12.3887L133.969 12.7793C134.991 12.9941 135.756 13.3457 136.264 13.834C136.771 14.3223 137.025 14.9538 137.025 15.7285C137.025 16.4121 136.827 17.0176 136.43 17.5449C136.033 18.0723 135.482 18.4824 134.779 18.7754C134.083 19.0684 133.279 19.2148 132.367 19.2148C131.033 19.2148 129.958 18.9349 129.145 18.375C128.337 17.8086 127.852 17.0241 127.689 16.0215L130.199 15.7871C130.31 16.2754 130.551 16.6465 130.922 16.9004C131.299 17.1478 131.781 17.2715 132.367 17.2715C132.979 17.2715 133.471 17.1478 133.842 16.9004C134.213 16.6465 134.398 16.3372 134.398 15.9727C134.398 15.3607 133.91 14.944 132.934 14.7227L131.068 14.332C130.02 14.1042 129.245 13.7363 128.744 13.2285C128.243 12.7142 127.992 12.0599 127.992 11.2656C127.992 10.5885 128.178 10.0026 128.549 9.50781C128.92 9.01302 129.438 8.62891 130.102 8.35547C130.766 8.08203 131.534 7.94531 132.406 7.94531C133.689 7.94531 134.695 8.22201 135.424 8.77539C136.16 9.32227 136.615 10.0579 136.791 10.9824Z" fill="black"/>
<path d="M10.0365 16.2388C15.5795 16.2388 25 -22.5672 25 19.7987C25 25.0549 15.5795 23.8902 10.0365 23.8902C4.49349 23.8902 -2.64226e-07 17.9552 -4.93982e-07 12.699C-7.23739e-07 7.44279 4.49349 16.2388 10.0365 16.2388Z" fill="url(#paint0_linear_43_50)"/>
<defs>
<linearGradient id="paint0_linear_43_50" x1="-3.10573e-06" y1="12.0812" x2="23.0564" y2="19.9029" gradientUnits="userSpaceOnUse">
<stop stop-color="#63D782"/>
<stop offset="0.0001" stop-color="#63D782"/>
<stop offset="0.586458" stop-color="#3CCD63"/>
<stop offset="0.919708" stop-color="#8DE2A4"/>
</linearGradient>
</defs>
</svg>
